<?xml version="1.0" encoding="UTF-8"?>
<!DOCTYPE svg PUBLIC "-//W3C//DTD SVG 1.1//EN" "http://www.w3.org/Graphics/SVG/1.1/DTD/svg11.dtd">
<svg xmlns="http://www.w3.org/2000/svg" version="1.1" width="512px" height="512px" style="shape-rendering:geometricPrecision; text-rendering:geometricPrecision; image-rendering:optimizeQuality; fill-rule:evenodd; clip-rule:evenodd" xmlns:xlink="http://www.w3.org/1999/xlink">
<g><path style="opacity:0.996" fill="#000000" d="M 232.5,-0.5 C 247.833,-0.5 263.167,-0.5 278.5,-0.5C 370.807,10.8856 439.307,57.219 484,138.5C 498.774,168.31 507.941,199.644 511.5,232.5C 511.5,247.833 511.5,263.167 511.5,278.5C 500.114,370.807 453.781,439.307 372.5,484C 342.69,498.774 311.356,507.941 278.5,511.5C 263.167,511.5 247.833,511.5 232.5,511.5C 140.193,500.114 71.6925,453.781 27,372.5C 12.2255,342.69 3.05884,311.356 -0.5,278.5C -0.5,263.167 -0.5,247.833 -0.5,232.5C 10.8856,140.193 57.219,71.6925 138.5,27C 168.31,12.2255 199.644,3.05884 232.5,-0.5 Z"/></g>
<g><path style="opacity:1" fill="#b0b0b0" d="M 278.5,147.5 C 265.173,146.24 251.84,146.24 238.5,147.5C 245.264,145.965 252.264,145.298 259.5,145.5C 264.5,145.667 269.5,145.833 274.5,146C 276.058,146.21 277.391,146.71 278.5,147.5 Z"/></g>
<g><path style="opacity:1" fill="#fbfbfb" d="M 278.5,147.5 C 306.422,152.113 323.755,168.113 330.5,195.5C 330.5,199.167 330.5,202.833 330.5,206.5C 318.167,206.5 305.833,206.5 293.5,206.5C 290.732,185.745 278.732,175.745 257.5,176.5C 248.232,176.524 240.066,179.524 233,185.5C 224.191,198.967 226.024,210.801 238.5,221C 252.717,227.517 267.384,232.851 282.5,237C 300.157,243.33 314.323,254.163 325,269.5C 340.404,304.632 330.904,330.465 296.5,347C 276.146,353.184 255.479,354.184 234.5,350C 213.054,344.536 197.221,332.036 187,312.5C 185.107,307.993 183.941,303.327 183.5,298.5C 183.5,295.167 183.5,291.833 183.5,288.5C 195.833,288.5 208.167,288.5 220.5,288.5C 220.263,289.791 220.596,290.791 221.5,291.5C 224.321,310.981 235.654,320.981 255.5,321.5C 257.641,322.163 259.975,322.497 262.5,322.5C 266.141,322.685 269.474,322.019 272.5,320.5C 293.236,313.694 298.403,300.694 288,281.5C 282.766,276.797 276.933,272.963 270.5,270C 249.816,265.11 230.483,257.11 212.5,246C 199.725,237.408 192.059,225.574 189.5,210.5C 189.135,201.732 189.801,193.065 191.5,184.5C 197.63,168.205 208.963,157.038 225.5,151C 229.716,149.316 234.049,148.149 238.5,147.5C 251.84,146.24 265.173,146.24 278.5,147.5 Z"/></g>
<g><path style="opacity:1" fill="#999999" d="M 191.5,184.5 C 189.801,193.065 189.135,201.732 189.5,210.5C 188.347,204.347 188.18,198.014 189,191.5C 189.39,188.896 190.224,186.562 191.5,184.5 Z"/></g>
<g><path style="opacity:1" fill="#b2b2b2" d="M 330.5,195.5 C 331.483,199.298 331.817,203.298 331.5,207.5C 318.656,207.829 305.989,207.495 293.5,206.5C 305.833,206.5 318.167,206.5 330.5,206.5C 330.5,202.833 330.5,199.167 330.5,195.5 Z"/></g>
<g><path style="opacity:1" fill="#b2b2b2" d="M 221.5,291.5 C 220.596,290.791 220.263,289.791 220.5,288.5C 208.167,288.5 195.833,288.5 183.5,288.5C 183.5,291.833 183.5,295.167 183.5,298.5C 182.518,295.038 182.185,291.371 182.5,287.5C 195.5,287.5 208.5,287.5 221.5,287.5C 221.5,288.833 221.5,290.167 221.5,291.5 Z"/></g>
<g><path style="opacity:1" fill="#b5b5b5" d="M 272.5,320.5 C 269.474,322.019 266.141,322.685 262.5,322.5C 259.975,322.497 257.641,322.163 255.5,321.5C 261.203,321.625 266.87,321.292 272.5,320.5 Z"/></g>
</svg>
